<svg aria-hidden="true" style="width:0;height:0;position:absolute;overflow:hidden" xmlns="http://www.w3.org/2000/svg"><defs><symbol id="icon-logo" viewBox="0 0 32 32"><path d="M4.625 2.909c-.948 0-1.716.768-1.716 1.716v2.647h4.364V2.908H4.626zm0-2.909h22.749a4.625 4.625 0 0 1 4.625 4.625v22.749a4.625 4.625 0 0 1-4.625 4.625H4.625A4.625 4.625 0 0 1 0 27.374V4.625A4.625 4.625 0 0 1 4.625 0zm5.557 2.909v11.636h11.636V2.909H10.182zm14.545 0v4.364h4.364V4.626c0-.948-.768-1.716-1.716-1.716h-2.647zm4.364 7.273h-4.364v4.364h4.364v-4.364zm0 7.273h-4.364v4.364h4.364v-4.364zm0 7.272h-4.364v4.364h2.647c.948 0 1.716-.768 1.716-1.716v-2.647zm-7.273 4.364V17.455H10.182v11.636h11.636zm-14.545 0v-4.364H2.909v2.647c0 .948.768 1.716 1.716 1.716h2.647zm-4.364-7.273h4.364v-4.364H2.909v4.364zm0-7.273h4.364v-4.364H2.909v4.364z"/></symbol><symbol id="icon-search" viewBox="0 0 32 32"><path fill="none" stroke="#fff" style="stroke:var(--color1,#fff)" stroke-linejoin="round" stroke-linecap="round" stroke-width="2.667" d="M14.667 25.333c5.891 0 10.667-4.776 10.667-10.667S20.558 3.999 14.667 3.999v0C8.776 3.999 4 8.775 4 14.666s4.776 10.667 10.667 10.667v0zM28 28l-5.8-5.8"/></symbol></defs></svg>