<svg aria-hidden="true" style="position: absolute; width: 0; height: 0; overflow: hidden;" version="1.1" xmlns="http://www.w3.org/2000/svg" xmlns:xlink="http://www.w3.org/1999/xlink">
<defs>
<symbol id="icon-logo" viewBox="0 0 32 32">
<path  d="M4.625 2.909c-0.948 0-1.716 0.768-1.716 1.716v0 2.647h4.364v-4.364h-2.647zM4.625 0h22.749c2.555 0 4.625 2.071 4.625 4.625v22.749c0 2.555-2.071 4.625-4.625 4.625h-22.749c-2.555 0-4.625-2.071-4.625-4.625v-22.749c0-2.555 2.071-4.625 4.625-4.625zM10.182 2.909v11.636h11.636v-11.636h-11.636zM24.727 2.909v4.364h4.364v-2.647c0-0.948-0.768-1.716-1.716-1.716v0h-2.647zM29.091 10.182h-4.364v4.364h4.364v-4.364zM29.091 17.455h-4.364v4.364h4.364v-4.364zM29.091 24.727h-4.364v4.364h2.647c0.948 0 1.716-0.768 1.716-1.716v0-2.647zM21.818 29.091v-11.636h-11.636v11.636h11.636zM7.273 29.091v-4.364h-4.364v2.647c0 0.948 0.768 1.716 1.716 1.716h2.647zM2.909 21.818h4.364v-4.364h-4.364v4.364zM2.909 14.545h4.364v-4.364h-4.364v4.364z"></path>
</symbol>
<symbol id="icon-search" viewBox="0 0 32 32">
<path fill="none" stroke="#fff" style="stroke: var(--color1, #fff)" stroke-linejoin="round" stroke-linecap="round" stroke-miterlimit="4" stroke-width="2.6667" d="M14.667 25.333c5.891 0 10.667-4.776 10.667-10.667s-4.776-10.667-10.667-10.667v0c-5.891 0-10.667 4.776-10.667 10.667s4.776 10.667 10.667 10.667v0zM28 28l-5.8-5.8"></path>
</symbol>
</defs>
</svg>
